<svg width="47" height="47" viewBox="0 0 47 47" fill="none" xmlns="http://www.w3.org/2000/svg">
<g clip-path="url(#clip0_712_806)">
<path d="M19.583 9.79167C19.583 8.7529 19.9957 7.75668 20.7302 7.02216C21.4647 6.28765 22.4609 5.875 23.4997 5.875C24.5384 5.875 25.5347 6.28765 26.2692 7.02216C27.0037 7.75668 27.4163 8.7529 27.4163 9.79167C29.6653 10.8551 31.5825 12.5105 32.9624 14.5804C34.3424 16.6503 35.133 19.0567 35.2497 21.5417V27.4167C35.397 28.6342 35.8282 29.8001 36.5085 30.8205C37.1888 31.8409 38.0992 32.6874 39.1663 33.2917H7.83301C8.90018 32.6874 9.81055 31.8409 10.4908 30.8205C11.1711 29.8001 11.6023 28.6342 11.7497 27.4167V21.5417C11.8663 19.0567 12.657 16.6503 14.0369 14.5804C15.4168 12.5105 17.334 10.8551 19.583 9.79167" stroke="white" stroke-width="3" stroke-linecap="round" stroke-linejoin="round"/>
<path d="M17.625 33.2917V35.25C17.625 36.8081 18.244 38.3025 19.3457 39.4042C20.4475 40.506 21.9419 41.125 23.5 41.125C25.0581 41.125 26.5525 40.506 27.6543 39.4042C28.756 38.3025 29.375 36.8081 29.375 35.25V33.2917" stroke="white" stroke-width="3" stroke-linecap="round" stroke-linejoin="round"/>
</g>
<defs>
<clipPath id="clip0_712_806">
<rect width="47" height="47" fill="white"/>
</clipPath>
</defs>
</svg>
