<svg width="60" height="60" viewBox="0 0 60 60" fill="none" xmlns="http://www.w3.org/2000/svg">
<g filter="url(#filter0_d_712_817)">
<path d="M55.75 16.0943V15.3443H54.25V16.0943H55.75ZM55 10.434L55.3755 11.0832L55.75 10.8666V10.434H55ZM27.2222 41.566L26.5377 41.8725L27.1581 43.2582L27.8816 41.9234L27.2222 41.566ZM16.6678 24.0824C16.3903 23.7749 15.9161 23.7506 15.6086 24.0282C15.3011 24.3057 15.2768 24.78 15.5544 25.0874L16.6678 24.0824ZM4.25 4V48H5.75V4H4.25ZM8 51.75H52V50.25H8V51.75ZM55.75 48V16.0943H54.25V48H55.75ZM8 1.75H52V0.25H8V1.75ZM54.25 4V10.434H55.75V4H54.25ZM54.6245 9.78471C48.0225 13.6026 43.2169 17.3608 38.9479 22.2352C34.6883 27.0988 30.9862 33.0476 26.5628 41.2086L27.8816 41.9234C32.2905 33.7892 35.9291 27.9588 40.0763 23.2235C44.214 18.499 48.8811 14.8388 55.3755 11.0832L54.6245 9.78471ZM27.9067 41.2595C24.7595 34.2307 22.3919 30.4238 16.6678 24.0824L15.5544 25.0874C21.1701 31.3089 23.4527 34.9825 26.5377 41.8725L27.9067 41.2595ZM52 1.75C53.2426 1.75 54.25 2.75736 54.25 4H55.75C55.75 1.92893 54.0711 0.25 52 0.25V1.75ZM52 51.75C54.0711 51.75 55.75 50.0711 55.75 48H54.25C54.25 49.2426 53.2426 50.25 52 50.25V51.75ZM4.25 48C4.25 50.0711 5.92893 51.75 8 51.75V50.25C6.75736 50.25 5.75 49.2426 5.75 48H4.25ZM5.75 4C5.75 2.75736 6.75736 1.75 8 1.75V0.25C5.92893 0.25 4.25 1.92893 4.25 4H5.75Z" fill="black"/>
</g>
<defs>
<filter id="filter0_d_712_817" x="0.25" y="0.25" width="59.5" height="59.5" filterUnits="userSpaceOnUse" color-interpolation-filters="sRGB">
<feFlood flood-opacity="0" result="BackgroundImageFix"/>
<feColorMatrix in="SourceAlpha" type="matrix" values="0 0 0 0 0 0 0 0 0 0 0 0 0 0 0 0 0 0 127 0" result="hardAlpha"/>
<feOffset dy="4"/>
<feGaussianBlur stdDeviation="2"/>
<feComposite in2="hardAlpha" operator="out"/>
<feColorMatrix type="matrix" values="0 0 0 0 0 0 0 0 0 0 0 0 0 0 0 0 0 0 0.25 0"/>
<feBlend mode="normal" in2="BackgroundImageFix" result="effect1_dropShadow_712_817"/>
<feBlend mode="normal" in="SourceGraphic" in2="effect1_dropShadow_712_817" result="shape"/>
</filter>
</defs>
</svg>
