<svg width="49" height="54" viewBox="0 0 49 54" fill="none" xmlns="http://www.w3.org/2000/svg">
<g clip-path="url(#clip0_721_237)">
<g filter="url(#filter0_d_721_237)">
<path d="M19.0169 7.42521C19.0169 6.09346 19.5797 4.81625 20.5815 3.87456C21.5833 2.93287 22.942 2.40384 24.3587 2.40384C25.7755 2.40384 27.1342 2.93287 28.136 3.87456C29.1378 4.81625 29.7006 6.09346 29.7006 7.42521C32.7679 8.78858 35.3828 10.9109 37.2649 13.5646C39.1469 16.2183 40.2253 19.3034 40.3844 22.4893V30.0214C40.5854 31.5823 41.1735 33.077 42.1013 34.3852C43.0291 35.6935 44.2708 36.7787 45.7263 37.5534H2.99121C4.44671 36.7787 5.68835 35.6935 6.61618 34.3852C7.544 33.077 8.13209 31.5823 8.33309 30.0214V22.4893C8.49217 19.3034 9.57054 16.2183 11.4526 13.5646C13.3347 10.9109 15.9495 8.78858 19.0169 7.42521Z" stroke="black" stroke-width="2" stroke-linecap="round" stroke-linejoin="round" shape-rendering="crispEdges"/>
</g>
<g filter="url(#filter1_d_721_237)">
<path d="M16.3457 37.5534V40.0641C16.3457 42.0617 17.1899 43.9775 18.6926 45.3901C20.1953 46.8026 22.2334 47.5962 24.3585 47.5962C26.4837 47.5962 28.5217 46.8026 30.0244 45.3901C31.5271 43.9775 32.3713 42.0617 32.3713 40.0641V37.5534" stroke="black" stroke-width="2" stroke-linecap="round" stroke-linejoin="round" shape-rendering="crispEdges"/>
</g>
</g>
<defs>
<filter id="filter0_d_721_237" x="-2.00879" y="1.40384" width="52.7354" height="45.1496" filterUnits="userSpaceOnUse" color-interpolation-filters="sRGB">
<feFlood flood-opacity="0" result="BackgroundImageFix"/>
<feColorMatrix in="SourceAlpha" type="matrix" values="0 0 0 0 0 0 0 0 0 0 0 0 0 0 0 0 0 0 127 0" result="hardAlpha"/>
<feOffset dy="4"/>
<feGaussianBlur stdDeviation="2"/>
<feComposite in2="hardAlpha" operator="out"/>
<feColorMatrix type="matrix" values="0 0 0 0 0 0 0 0 0 0 0 0 0 0 0 0 0 0 0.25 0"/>
<feBlend mode="normal" in2="BackgroundImageFix" result="effect1_dropShadow_721_237"/>
<feBlend mode="normal" in="SourceGraphic" in2="effect1_dropShadow_721_237" result="shape"/>
</filter>
<filter id="filter1_d_721_237" x="11.3457" y="36.5534" width="26.0254" height="20.0427" filterUnits="userSpaceOnUse" color-interpolation-filters="sRGB">
<feFlood flood-opacity="0" result="BackgroundImageFix"/>
<feColorMatrix in="SourceAlpha" type="matrix" values="0 0 0 0 0 0 0 0 0 0 0 0 0 0 0 0 0 0 127 0" result="hardAlpha"/>
<feOffset dy="4"/>
<feGaussianBlur stdDeviation="2"/>
<feComposite in2="hardAlpha" operator="out"/>
<feColorMatrix type="matrix" values="0 0 0 0 0 0 0 0 0 0 0 0 0 0 0 0 0 0 0.25 0"/>
<feBlend mode="normal" in2="BackgroundImageFix" result="effect1_dropShadow_721_237"/>
<feBlend mode="normal" in="SourceGraphic" in2="effect1_dropShadow_721_237" result="shape"/>
</filter>
<clipPath id="clip0_721_237">
<rect width="49" height="54" fill="white"/>
</clipPath>
</defs>
</svg>
