<svg width="168" height="168" viewBox="0 0 168 168" fill="none" xmlns="http://www.w3.org/2000/svg">
<rect width="168" height="168" rx="14" fill="url(#paint0_linear_949_253)"/>
<path d="M75.832 43.3542C75.832 40.134 77.0085 37.0457 79.1027 34.7687C81.1968 32.4917 84.0371 31.2125 86.9987 31.2125C89.9603 31.2125 92.8006 32.4917 94.8947 34.7687C96.9889 37.0457 98.1654 40.134 98.1654 43.3542C104.577 46.6508 110.043 51.7825 113.978 58.1992C117.912 64.6159 120.166 72.0757 120.499 79.7792V97.9917C120.919 101.766 122.148 105.38 124.088 108.544C126.027 111.707 128.623 114.331 131.665 116.204H42.332C45.3746 114.331 47.9701 111.707 49.9097 108.544C51.8492 105.38 53.0785 101.766 53.4987 97.9917V79.7792C53.8312 72.0757 56.0855 64.6159 60.0198 58.1992C63.954 51.7825 69.4201 46.6508 75.832 43.3542Z" stroke="white" stroke-width="3" stroke-linecap="round" stroke-linejoin="round"/>
<path d="M70.25 116.204V122.275C70.25 127.105 72.0147 131.738 75.156 135.153C78.2972 138.569 82.5576 140.487 87 140.487C91.4424 140.487 95.7028 138.569 98.844 135.153C101.985 131.738 103.75 127.105 103.75 122.275V116.204" stroke="white" stroke-width="3" stroke-linecap="round" stroke-linejoin="round"/>
<defs>
<linearGradient id="paint0_linear_949_253" x1="11" y1="8" x2="158.5" y2="161.5" gradientUnits="userSpaceOnUse">
<stop stop-color="#FEAF6B"/>
<stop offset="0.34375" stop-color="#FE7D89"/>
<stop offset="0.619792" stop-color="#FE6497"/>
<stop offset="1" stop-color="#F771DA"/>
</linearGradient>
</defs>
</svg>
