<svg width="168" height="168" viewBox="0 0 168 168" fill="none" xmlns="http://www.w3.org/2000/svg">
<rect width="168" height="168" rx="14" fill="url(#paint0_linear_949_251)"/>
<path d="M84 130.621V45.2759M84 130.621C84 130.621 70.6707 123.381 61.8226 121.138C53.2882 118.975 39.6452 119.241 39.6452 119.241V32C39.6452 32 53.9375 33.1531 62.7097 35.7931C71.3799 38.4024 84 45.2759 84 45.2759M84 130.621C84 130.621 97.3293 123.381 106.177 121.138C114.712 118.975 128.355 119.241 128.355 119.241V32C128.355 32 114.063 33.1531 105.29 35.7931C96.6201 38.4024 84 45.2759 84 45.2759M29 45.2759V130.621C29 130.621 45.9225 130.398 56.5 132.517C67.5912 134.739 84 142 84 142C84 142 100.409 134.739 111.5 132.517C122.078 130.398 139 130.621 139 130.621V45.2759" stroke="white" stroke-width="3.5"/>
<defs>
<linearGradient id="paint0_linear_949_251" x1="11" y1="6" x2="160" y2="168" gradientUnits="userSpaceOnUse">
<stop stop-color="#7CAFF9"/>
<stop offset="0.322917" stop-color="#777BEF"/>
<stop offset="0.65625" stop-color="#7F74EE"/>
<stop offset="1" stop-color="#B379FD"/>
</linearGradient>
</defs>
</svg>
