<svg width="50" height="53" viewBox="0 0 50 53" fill="none" xmlns="http://www.w3.org/2000/svg">
<g clip-path="url(#clip0_757_942)" filter="url(#filter0_d_757_942)">
<path d="M18.7503 22.9167C23.3527 22.9167 27.0837 19.1857 27.0837 14.5833C27.0837 9.98096 23.3527 6.25 18.7503 6.25C14.148 6.25 10.417 9.98096 10.417 14.5833C10.417 19.1857 14.148 22.9167 18.7503 22.9167Z" stroke="black" stroke-width="2" stroke-linecap="round" stroke-linejoin="round"/>
<path d="M6.25 43.75V39.5833C6.25 37.3732 7.12797 35.2536 8.69078 33.6908C10.2536 32.128 12.3732 31.25 14.5833 31.25H22.9167C25.1268 31.25 27.2464 32.128 28.8092 33.6908C30.372 35.2536 31.25 37.3732 31.25 39.5833V43.75" stroke="black" stroke-width="2" stroke-linecap="round" stroke-linejoin="round"/>
<path d="M33.333 6.52084C35.1255 6.9798 36.7143 8.0223 37.8489 9.48399C38.9835 10.9457 39.5993 12.7434 39.5993 14.5938C39.5993 16.4441 38.9835 18.2418 37.8489 19.7035C36.7143 21.1652 35.1255 22.2077 33.333 22.6667" stroke="black" stroke-width="2" stroke-linecap="round" stroke-linejoin="round"/>
<path d="M43.75 43.75V39.5833C43.7394 37.7441 43.1207 35.96 41.9901 34.5092C40.8596 33.0583 39.2809 32.0223 37.5 31.5625" stroke="black" stroke-width="2" stroke-linecap="round" stroke-linejoin="round"/>
</g>
<defs>
<filter id="filter0_d_757_942" x="-4" y="0" width="58" height="58" filterUnits="userSpaceOnUse" color-interpolation-filters="sRGB">
<feFlood flood-opacity="0" result="BackgroundImageFix"/>
<feColorMatrix in="SourceAlpha" type="matrix" values="0 0 0 0 0 0 0 0 0 0 0 0 0 0 0 0 0 0 127 0" result="hardAlpha"/>
<feOffset dy="4"/>
<feGaussianBlur stdDeviation="2"/>
<feColorMatrix type="matrix" values="0 0 0 0 0 0 0 0 0 0 0 0 0 0 0 0 0 0 0.25 0"/>
<feBlend mode="normal" in2="BackgroundImageFix" result="effect1_dropShadow_757_942"/>
<feBlend mode="normal" in="SourceGraphic" in2="effect1_dropShadow_757_942" result="shape"/>
</filter>
<clipPath id="clip0_757_942">
<rect width="50" height="50" fill="white"/>
</clipPath>
</defs>
</svg>
