<svg width="168" height="168" viewBox="0 0 168 168" fill="none" xmlns="http://www.w3.org/2000/svg">
<rect width="168" height="168" rx="14" fill="url(#paint0_linear_949_252)"/>
<path d="M140.75 62.2075V60.4575H137.25V62.2075H140.75ZM139 49.7547L139.876 51.2696L140.75 50.7643V49.7547H139ZM77.8889 118.245L76.2917 118.96L77.7394 122.194L79.4274 119.079L77.8889 118.245ZM54.7435 79.7142C54.0959 78.9968 52.9893 78.9401 52.2719 79.5877C51.5544 80.2353 51.4978 81.3419 52.1454 82.0594L54.7435 79.7142ZM27.25 32V136H30.75V32H27.25ZM32 140.75H136V137.25H32V140.75ZM140.75 136V62.2075H137.25V136H140.75ZM32 30.75H136V27.25H32V30.75ZM137.25 32V49.7547H140.75V32H137.25ZM138.124 48.2398C123.592 56.6434 113.011 64.918 103.61 75.6516C94.2316 86.36 86.0828 99.4553 76.3504 117.411L79.4274 119.079C89.126 101.186 97.1267 88.3666 106.243 77.9576C115.337 67.5738 125.596 59.5279 139.876 51.2696L138.124 48.2398ZM79.4861 117.53C72.5581 102.057 67.3437 93.6734 54.7435 79.7142L52.1454 82.0594C64.4928 95.7385 69.5088 103.812 76.2917 118.96L79.4861 117.53ZM136 30.75C136.69 30.75 137.25 31.3096 137.25 32H140.75C140.75 29.3766 138.623 27.25 136 27.25V30.75ZM136 140.75C138.623 140.75 140.75 138.623 140.75 136H137.25C137.25 136.69 136.69 137.25 136 137.25V140.75ZM27.25 136C27.25 138.623 29.3766 140.75 32 140.75V137.25C31.3096 137.25 30.75 136.69 30.75 136H27.25ZM30.75 32C30.75 31.3096 31.3096 30.75 32 30.75V27.25C29.3766 27.25 27.25 29.3766 27.25 32H30.75Z" fill="white"/>
<defs>
<linearGradient id="paint0_linear_949_252" x1="10.5" y1="8" x2="158.5" y2="163.5" gradientUnits="userSpaceOnUse">
<stop stop-color="#74FCA1"/>
<stop offset="0.333333" stop-color="#41E6B2"/>
<stop offset="0.677083" stop-color="#32E1AB"/>
<stop offset="1" stop-color="#36DF74"/>
</linearGradient>
</defs>
</svg>
