<svg width="50" height="50" viewBox="0 0 50 50" fill="none" xmlns="http://www.w3.org/2000/svg">
<g clip-path="url(#clip0_365_111)">
<path d="M29.1667 39.5833H20.8333C16.413 39.5833 12.1738 37.8274 9.04821 34.7018C5.9226 31.5762 4.16666 27.3369 4.16666 22.9167V12.5H12.5V22.9167C12.5 25.1268 13.378 27.2464 14.9408 28.8092C16.5036 30.372 18.6232 31.25 20.8333 31.25V12.5H29.1667V21.875L29.2292 21.8667C31.5125 21.5818 33.6132 20.4726 35.1363 18.7478C36.6593 17.0229 37.4999 14.8011 37.5 12.5H45.8333L45.1208 16.0646C44.6941 18.1981 43.7857 20.206 42.465 21.935C41.1443 23.6641 39.4461 25.0687 37.5 26.0417C39.3924 26.6721 41.0805 27.7998 42.3875 29.3066C43.6945 30.8133 44.5724 32.6438 44.9292 34.6062L45.8333 39.5833H37.5C37.4999 37.2823 36.6593 35.0605 35.1363 33.3356C33.6132 31.6107 31.5125 30.5016 29.2292 30.2167V39.5917L29.1667 39.5833Z" stroke="white" stroke-width="2" stroke-linecap="round" stroke-linejoin="round"/>
</g>
<defs>
<clipPath id="clip0_365_111">
<rect width="50" height="50" fill="white"/>
</clipPath>
</defs>
</svg>
