<svg width="50" height="50" viewBox="0 0 50 50" fill="none" xmlns="http://www.w3.org/2000/svg">
<g clip-path="url(#clip0_365_121)">
<path d="M45.8333 8.35419C43.75 9.37503 41.7083 9.78961 39.5833 10.4167C37.2479 7.78128 33.7854 7.63544 30.4583 8.88128C27.1312 10.1271 24.9521 13.1729 25 16.6667V18.75C18.2396 18.9229 12.2187 15.8438 8.33332 10.4167C8.33332 10.4167 -0.379178 25.9021 16.6667 33.3334C12.7667 35.9313 8.87707 37.6834 4.16666 37.5C11.0583 41.2563 18.5687 42.5479 25.0708 40.6604C32.5292 38.4938 38.6583 32.9042 41.0104 24.5313C41.7121 21.9848 42.0605 19.3539 42.0458 16.7125C42.0417 16.1938 45.1917 10.9375 45.8333 8.35211V8.35419Z" stroke="white" stroke-width="2" stroke-linecap="round" stroke-linejoin="round"/>
</g>
<defs>
<clipPath id="clip0_365_121">
<rect width="50" height="50" fill="white"/>
</clipPath>
</defs>
</svg>
