<svg width="30" height="30" viewBox="0 0 30 30" fill="none" xmlns="http://www.w3.org/2000/svg">
<g clip-path="url(#clip0_342_348)">
<path d="M12.5 20V22.5C12.5 23.163 12.7634 23.7989 13.2322 24.2678C13.7011 24.7366 14.337 25 15 25H23.75C24.413 25 25.0489 24.7366 25.5178 24.2678C25.9866 23.7989 26.25 23.163 26.25 22.5L26.25 7.5C26.25 6.83696 25.9866 6.20107 25.5178 5.73223C25.0489 5.26339 24.413 5 23.75 5H15C14.337 5 13.7011 5.26339 13.2322 5.73223C12.7634 6.20107 12.5 6.83696 12.5 7.5V10" stroke="white" stroke-width="2" stroke-linecap="round" stroke-linejoin="round"/>
<path d="M5 15L21.25 15L17.5 18.75M17.5 11.25L21.25 15" stroke="white" stroke-width="2" stroke-linecap="round" stroke-linejoin="round"/>
</g>
<defs>
<clipPath id="clip0_342_348">
<rect width="30" height="30" fill="white" transform="translate(30 30) rotate(-180)"/>
</clipPath>
</defs>
</svg>
